<svg xmlns="http://www.w3.org/2000/svg" width="20.277" height="16" viewBox="0 0 20.277 16">
  <path id="mail-inbox-app" d="M15.525,70H4.752A4.758,4.758,0,0,1,0,65.248v-6.5A4.758,4.758,0,0,1,4.752,54H15.525a4.758,4.758,0,0,1,4.752,4.752v6.5A4.758,4.758,0,0,1,15.525,70ZM4.752,55.584a3.172,3.172,0,0,0-3.168,3.168v6.5a3.172,3.172,0,0,0,3.168,3.168H15.525a3.172,3.172,0,0,0,3.168-3.168v-6.5a3.172,3.172,0,0,0-3.168-3.168ZM13.041,63.4l3.915-2.991a.792.792,0,1,0-.962-1.259l-3.915,2.99a3.176,3.176,0,0,1-3.84,0L4.447,59.2a.792.792,0,0,0-.972,1.251l3.8,2.951.006,0a4.764,4.764,0,0,0,5.765,0Z" transform="translate(0 -54)" fill="#d3a97b"/>
</svg>
