<svg xmlns="http://www.w3.org/2000/svg" width="18.144" height="18.159" viewBox="0 0 18.144 18.159">
  <path id="telephone" d="M11.942,18.16C4.666,18.105-3.858,7.5,2.371,1.27c.221-.225.456-.441.7-.643A2.644,2.644,0,0,1,6.641.779L6.65.788l1.2,1.247A2.6,2.6,0,0,1,7,6.259a5.727,5.727,0,0,0-.948.468c-.661.673-1.081,1.767,1.39,4.242.8.8,1.99,1.871,3.041,1.871a1.679,1.679,0,0,0,1.2-.552,5.51,5.51,0,0,0,.438-.907,2.6,2.6,0,0,1,4.227-.871L17.572,11.7l.009.009a2.649,2.649,0,0,1,.158,3.568c-.188.226-.389.446-.6.654a7.2,7.2,0,0,1-5.2,2.225ZM4.774,1.421a1.235,1.235,0,0,0-.8.292c-.206.173-.407.358-.6.551C.062,5.637,1.887,10.244,5.077,13.4c3.162,3.146,7.745,4.866,11.061,1.534.179-.179.351-.368.512-.561a1.225,1.225,0,0,0-.069-1.654L15.35,11.526l-.009-.009a1.168,1.168,0,0,0-1.911.393,5.466,5.466,0,0,1-.73,1.36,3.079,3.079,0,0,1-2.221.989c-1.561,0-2.982-1.222-4.045-2.287C4.821,10.424,2.956,7.785,5.062,5.707a5.633,5.633,0,0,1,1.4-.761,1.173,1.173,0,0,0,.382-1.914l-.009-.009-1.2-1.246a1.215,1.215,0,0,0-.859-.356ZM17.648,8.479a.709.709,0,0,1-.705-.646,7.078,7.078,0,0,0-6.417-6.417A.709.709,0,1,1,10.653,0a8.558,8.558,0,0,1,7.7,7.7.709.709,0,0,1-.643.77l-.064,0Zm-5.525,0a.709.709,0,0,0,.448-.9,2.869,2.869,0,0,0-1.746-1.792.709.709,0,0,0-.473,1.337,1.441,1.441,0,0,1,.873.9.708.708,0,0,0,.9.448Zm2.786-.006a.709.709,0,0,0,.6-.8A5.713,5.713,0,0,0,10.69,2.848a.709.709,0,0,0-.2,1.4A4.287,4.287,0,0,1,14.107,7.87a.709.709,0,0,0,.8.6Z" transform="translate(-0.214 -0.001)" fill="#d3a97b"/>
</svg>
